<svg viewBox="0 0 408 280" fill="none" xmlns="http://www.w3.org/2000/svg">
<path d="M0.648 0.495985H65.448V21.52H25.704V258.256H65.448V279.28H0.648V0.495985ZM207.749 76.24C200.261 104.272 191.429 131.152 181.253 156.88C171.269 182.608 161.573 205.648 152.165 226H127.973C118.565 205.648 108.773 182.608 98.5973 156.88C88.6133 131.152 79.8773 104.272 72.3893 76.24H101.189C103.493 85.648 106.181 95.728 109.253 106.48C112.517 117.04 115.877 127.6 119.333 138.16C122.981 148.528 126.629 158.608 130.277 168.4C133.925 178.192 137.381 186.928 140.645 194.608C143.909 186.928 147.365 178.192 151.013 168.4C154.661 158.608 158.213 148.528 161.669 138.16C165.317 127.6 168.677 117.04 171.749 106.48C175.013 95.728 177.797 85.648 180.101 76.24H207.749ZM270.232 206.704C281.176 206.704 289.24 205.264 294.424 202.384C299.8 199.504 302.488 194.896 302.488 188.56C302.488 182.032 299.896 176.848 294.712 173.008C289.528 169.168 280.984 164.848 269.08 160.048C263.32 157.744 257.752 155.44 252.376 153.136C247.192 150.64 242.68 147.76 238.84 144.496C235 141.232 231.928 137.296 229.624 132.688C227.32 128.08 226.168 122.416 226.168 115.696C226.168 102.448 231.064 91.984 240.856 84.304C250.648 76.432 263.992 72.496 280.888 72.496C285.112 72.496 289.336 72.784 293.56 73.36C297.784 73.744 301.72 74.32 305.368 75.088C309.016 75.664 312.184 76.336 314.872 77.104C317.752 77.872 319.96 78.544 321.496 79.12L316.6 102.16C313.72 100.624 309.208 99.088 303.064 97.552C296.92 95.824 289.528 94.96 280.888 94.96C273.4 94.96 266.872 96.496 261.304 99.568C255.736 102.448 252.952 107.056 252.952 113.392C252.952 116.656 253.528 119.536 254.68 122.032C256.024 124.528 257.944 126.832 260.44 128.944C263.128 130.864 266.392 132.688 270.232 134.416C274.072 136.144 278.68 137.968 284.056 139.888C291.16 142.576 297.496 145.264 303.064 147.952C308.632 150.448 313.336 153.424 317.176 156.88C321.208 160.336 324.28 164.56 326.392 169.552C328.504 174.352 329.56 180.304 329.56 187.408C329.56 201.232 324.376 211.696 314.008 218.8C303.832 225.904 289.24 229.456 270.232 229.456C256.984 229.456 246.616 228.304 239.128 226C231.64 223.888 226.552 222.256 223.864 221.104L228.76 198.064C231.832 199.216 236.728 200.944 243.448 203.248C250.168 205.552 259.096 206.704 270.232 206.704ZM407.979 279.28H343.179V258.256H382.923V21.52H343.179V0.495985H407.979V279.28Z" fill="currentColor"/>
</svg>
